<svg xmlns="http://www.w3.org/2000/svg" id="Layer_1" data-name="Layer 1" version="1.1" viewBox="0 0 1009.4 128.7"><defs><style>.cls-1{fill:#000}.cls-1,.cls-2{stroke-width:0}.cls-3{fill:none;stroke:#231f20;stroke-miterlimit:10;stroke-width:2px}.cls-2{fill:#231f20}</style></defs><g><path d="M33.5,66.8l-21.6-26.4v26.4H0V7.4h11.9v26.6L33.5,7.4h14.4l-24.5,29.4,25.1,29.9h-15Z" class="cls-2"/><path d="M92.7,55.5h-23.6l-3.9,11.3h-12.5L74,7.4h13.8l21.3,59.4h-12.6s-3.9-11.3-3.9-11.3ZM89.5,45.9l-8.6-24.8-8.6,24.8h17.2Z" class="cls-2"/><path d="M129.1,57.3h19.5v9.4h-31.4V7.4h11.9v49.9Z" class="cls-2"/><path d="M197.1,34.7c-1.5,2.8-3.9,5-7.1,6.7-3.2,1.7-7.2,2.5-12.1,2.5h-9.9v22.8h-11.9V7.4h21.8c4.6,0,8.5.8,11.7,2.4,3.2,1.6,5.6,3.8,7.3,6.5,1.6,2.8,2.4,5.9,2.4,9.4s-.8,6.1-2.2,8.9h0ZM184.8,32.1c1.6-1.5,2.4-3.6,2.4-6.3,0-5.8-3.2-8.7-9.7-8.7h-9.4v17.2h9.4c3.3,0,5.7-.8,7.3-2.2h0Z" class="cls-2"/><path d="M244.2,55.5h-23.6l-3.9,11.3h-12.5l21.3-59.4h13.9l21.3,59.4h-12.6l-3.9-11.3h0ZM240.9,45.9l-8.6-24.8-8.6,24.8h17.2Z" class="cls-2"/><path d="M309,7.4v9.6h-15.8v49.7h-11.9V17h-15.8V7.4h43.5,0Z" class="cls-2"/><path d="M354,55.5h-23.6l-3.9,11.3h-12.5l21.3-59.4h13.9l21.3,59.4h-12.6l-3.9-11.3h0ZM350.8,45.9l-8.6-24.8-8.6,24.8h17.2,0Z" class="cls-2"/><path d="M409.1,66.8l-13.1-23.1h-5.6v23.1h-11.9V7.4h22.3c4.6,0,8.5.8,11.7,2.4s5.6,3.8,7.3,6.5c1.6,2.8,2.4,5.8,2.4,9.2s-1.1,7.4-3.4,10.6c-2.3,3.1-5.6,5.3-10.1,6.5l14.2,24h-13.8ZM390.4,34.7h9.9c3.2,0,5.6-.8,7.2-2.3,1.6-1.6,2.4-3.7,2.4-6.5s-.8-4.8-2.4-6.3-4-2.2-7.2-2.2h-9.9v17.4Z" class="cls-2"/><path d="M444.7,7.4v36.7c0,4,1,7.1,3.1,9.2,2.1,2.1,5,3.2,8.8,3.2s6.8-1.1,8.9-3.2c2.1-2.1,3.1-5.2,3.1-9.2V7.4h12v36.6c0,5-1.1,9.3-3.3,12.8-2.2,3.5-5.1,6.1-8.8,7.9s-7.7,2.6-12.2,2.6-8.4-.9-12-2.6c-3.6-1.8-6.4-4.4-8.5-7.9s-3.1-7.7-3.1-12.8V7.4h11.9,0Z" class="cls-2"/></g><g><path d="M15.1,121.1H6.6l-1.4,4H.8l7.6-21.2h4.9l7.6,21.2h-4.5l-1.4-4h0ZM13.9,117.7l-3.1-8.8-3.1,8.8h6.1Z" class="cls-2"/><path d="M28,104v13.1c0,1.4.4,2.5,1.1,3.3s1.8,1.1,3.1,1.1,2.4-.4,3.2-1.1c.8-.8,1.1-1.8,1.1-3.3v-13.1h4.3v13.1c0,1.8-.4,3.3-1.2,4.6s-1.8,2.2-3.1,2.8c-1.3.6-2.8.9-4.3.9s-3-.3-4.3-.9c-1.3-.6-2.3-1.6-3-2.8-.8-1.2-1.1-2.8-1.1-4.6v-13.1h4.3Z" class="cls-2"/><path d="M59.3,104v3.4h-5.6v17.7h-4.2v-17.7h-5.6v-3.4s15.5,0,15.5,0Z" class="cls-2"/><path d="M80,104v21.2h-4.2v-9h-9.1v9h-4.2v-21.2h4.2v8.7h9.1v-8.7s4.2,0,4.2,0Z" class="cls-2"/><path d="M88.5,124c-1.7-.9-3-2.2-3.9-3.9s-1.5-3.5-1.5-5.6.5-3.9,1.5-5.6c1-1.7,2.3-2.9,3.9-3.9s3.5-1.4,5.5-1.4,3.8.5,5.5,1.4c1.7.9,2.9,2.2,3.9,3.9,1,1.7,1.4,3.5,1.4,5.6s-.5,3.9-1.4,5.6c-1,1.7-2.3,2.9-3.9,3.9s-3.5,1.4-5.5,1.4-3.8-.5-5.5-1.4h0ZM97.3,120.7c1-.6,1.7-1.4,2.3-2.5.6-1.1.8-2.3.8-3.7s-.3-2.7-.8-3.7-1.3-1.9-2.3-2.4c-1-.6-2.1-.8-3.4-.8s-2.4.3-3.4.8c-1,.6-1.7,1.4-2.3,2.4-.6,1.1-.8,2.3-.8,3.7s.3,2.7.8,3.7,1.3,1.9,2.3,2.5,2.1.9,3.4.9,2.4-.3,3.4-.9Z" class="cls-2"/><path d="M118.9,125.2l-4.7-8.2h-2v8.2h-4.2v-21.2h7.9c1.6,0,3,.3,4.2.9,1.2.6,2,1.3,2.6,2.3.6,1,.9,2.1.9,3.3s-.4,2.7-1.2,3.8c-.8,1.1-2,1.9-3.6,2.3l5.1,8.6h-4.9,0ZM112.2,113.7h3.6c1.2,0,2-.3,2.6-.8.6-.6.8-1.3.8-2.3s-.3-1.7-.8-2.3-1.4-.8-2.6-.8h-3.6v6.2Z" class="cls-2"/><path d="M131.6,104v21.2h-4.2v-21.2s4.2,0,4.2,0Z" class="cls-2"/><path d="M139.1,124.6c-1.2-.5-2.1-1.2-2.8-2.2-.7-.9-1-2.1-1.1-3.4h4.6c0,.9.4,1.6.9,2.1.6.5,1.3.8,2.3.8s1.8-.2,2.3-.7c.6-.5.9-1.1.9-1.9s-.2-1.1-.6-1.6c-.4-.4-.9-.7-1.4-.9-.6-.2-1.4-.5-2.4-.8-1.4-.4-2.5-.8-3.4-1.2-.9-.4-1.6-1-2.2-1.8-.6-.8-.9-1.9-.9-3.2s.3-2.3.9-3.3,1.5-1.6,2.6-2.1c1.1-.5,2.4-.7,3.9-.7,2.2,0,4,.5,5.3,1.6s2.1,2.5,2.3,4.4h-4.7c0-.7-.4-1.3-.9-1.8-.6-.5-1.3-.7-2.3-.7s-1.5.2-2,.6c-.5.4-.7,1-.7,1.8s.2,1,.6,1.4.8.7,1.4.9c.6.2,1.3.5,2.4.8,1.4.4,2.5.8,3.4,1.2.9.4,1.6,1,2.2,1.8.6.8.9,1.9.9,3.2s-.3,2.2-.9,3.2c-.6,1-1.4,1.7-2.6,2.3s-2.5.9-4,.9-2.8-.2-4-.8h0Z" class="cls-2"/><path d="M158.5,107.4v5.3h7.1v3.4h-7.1v5.6h8v3.5h-12.3v-21.2h12.3v3.5h-8Z" class="cls-2"/><path d="M183.7,105.3c1.7.9,3,2.1,3.9,3.7.9,1.6,1.4,3.5,1.4,5.6s-.5,4-1.4,5.6c-.9,1.6-2.2,2.8-3.9,3.7s-3.6,1.3-5.9,1.3h-7.4v-21.2h7.4c2.2,0,4.2.4,5.9,1.3h0ZM182.8,119.7c1.2-1.2,1.8-2.9,1.8-5.1s-.6-3.9-1.8-5.2-2.9-1.9-5.1-1.9h-3v14h3c2.2,0,3.9-.6,5.1-1.8h0Z" class="cls-2"/><path d="M199.7,108.9c.9-1.7,2.2-2.9,3.9-3.8s3.4-1.4,5.5-1.4,4.4.6,6.2,1.8c1.8,1.2,3,2.9,3.7,5h-4.9c-.5-1-1.2-1.8-2.1-2.3s-1.9-.8-3.1-.8-2.3.3-3.3.9c-1,.6-1.7,1.4-2.2,2.4-.5,1.1-.8,2.3-.8,3.7s.3,2.6.8,3.7,1.3,1.9,2.2,2.5,2.1.9,3.3.9,2.2-.3,3.1-.8c.9-.5,1.6-1.3,2.1-2.3h4.9c-.7,2.2-1.9,3.8-3.7,5.1-1.8,1.2-3.9,1.8-6.2,1.8s-3.9-.5-5.5-1.4c-1.6-.9-2.9-2.2-3.9-3.8-.9-1.6-1.4-3.5-1.4-5.6s.5-3.9,1.4-5.6h0Z" class="cls-2"/><path d="M240.2,104v21.2h-4.2v-9h-9.1v9h-4.2v-21.2h4.2v8.7h9.1v-8.7s4.2,0,4.2,0Z" class="cls-2"/><path d="M257.3,121.1h-8.4l-1.4,4h-4.5l7.6-21.2h4.9l7.6,21.2h-4.5l-1.4-4ZM256.2,117.7l-3.1-8.8-3.1,8.8h6.1Z" class="cls-2"/><path d="M284.2,125.2h-4.2l-9.6-14.5v14.5h-4.2v-21.2h4.2l9.6,14.6v-14.6h4.2s0,21.2,0,21.2Z" class="cls-2"/><path d="M306.5,125.2h-4.2l-9.6-14.5v14.5h-4.2v-21.2h4.2l9.6,14.6v-14.6h4.2s0,21.2,0,21.2Z" class="cls-2"/><path d="M314.9,107.4v5.3h7.1v3.4h-7.1v5.6h8v3.5h-12.3v-21.2h12.3v3.5h-8Z" class="cls-2"/><path d="M331,121.8h7v3.4h-11.2v-21.2h4.2v17.8h0Z" class="cls-2"/><path d="M362.5,113.7c-.5,1-1.4,1.8-2.5,2.4-1.1.6-2.6.9-4.3.9h-3.5v8.1h-4.2v-21.2h7.8c1.6,0,3,.3,4.2.8s2,1.3,2.6,2.3c.6,1,.9,2.1.9,3.4s-.3,2.2-.8,3.2h0ZM358.1,112.8c.6-.5.9-1.3.9-2.3,0-2.1-1.1-3.1-3.5-3.1h-3.4v6.2h3.4c1.2,0,2-.3,2.6-.8Z" class="cls-2"/><path d="M379.3,121.1h-8.4l-1.4,4h-4.5l7.6-21.2h4.9l7.6,21.2h-4.5l-1.4-4h0ZM378.1,117.7l-3.1-8.8-3.1,8.8h6.1Z" class="cls-2"/><path d="M398.9,125.2l-4.7-8.2h-2v8.2h-4.2v-21.2h7.9c1.6,0,3,.3,4.2.9,1.1.6,2,1.3,2.6,2.3.6,1,.9,2.1.9,3.3s-.4,2.7-1.2,3.8c-.8,1.1-2,1.9-3.6,2.3l5.1,8.6h-4.9,0ZM392.3,113.7h3.5c1.1,0,2-.3,2.6-.8.6-.6.9-1.3.9-2.3s-.3-1.7-.9-2.3-1.4-.8-2.6-.8h-3.5v6.2Z" class="cls-2"/><path d="M421.9,104v3.4h-5.6v17.7h-4.2v-17.7h-5.6v-3.4h15.5Z" class="cls-2"/><path d="M443,125.2h-4.2l-9.6-14.5v14.5h-4.2v-21.2h4.2l9.6,14.6v-14.6h4.2s0,21.2,0,21.2Z" class="cls-2"/><path d="M451.5,107.4v5.3h7.1v3.4h-7.1v5.6h8v3.5h-12.3v-21.2h12.3v3.5h-8Z" class="cls-2"/><path d="M474.3,125.2l-4.7-8.2h-2v8.2h-4.2v-21.2h7.9c1.6,0,3,.3,4.2.9,1.1.6,2,1.3,2.6,2.3.6,1,.9,2.1.9,3.3s-.4,2.7-1.2,3.8c-.8,1.1-2,1.9-3.6,2.3l5.1,8.6h-4.9,0ZM467.6,113.7h3.5c1.1,0,2-.3,2.6-.8.6-.6.9-1.3.9-2.3s-.3-1.7-.9-2.3-1.4-.8-2.6-.8h-3.5v6.2Z" class="cls-2"/></g><line x1="503.2" x2="503.2" y2="128.7" class="cls-3"/><line x2="478.1" y1="82.8" y2="82.8" class="cls-3"/><g><path d="M739.3,65.5c6.1-12.5,11.5-23.4,16.7-34.4,1.6-3.4,3.8-4.5,7.5-4.6,5.5-.3,7,2,6.9,7.2-.2,20.7-.1,41.3,0,62,0,3.4.3,6.4-4.8,6.4-5.4,0-4.3-3.7-4.3-6.7,0-17.6,0-35.3-1.3-53.4-4.1,8.3-8.1,16.7-12.2,24.9-1,2-2.4,4.3-4.2,5.4-4.1,2.4-9.7.4-11.9-4-4.3-8.6-8.5-17.3-13.8-25.9v58.2c-8.2,2.7-9.3,2-9.4-5.1,0-20.7-.1-41.3.1-62,0-2.2,1.7-6.1,3.1-6.4,3.6-.7,8.1-2,10.6,3.2,5.3,11.3,10.8,22.4,17.1,35.3Z" class="cls-1"/><path d="M638.8,69.4c6.3,10.6,12.4,20.8,18.8,31.5-6.8,2.2-10.9,1-13.9-5-2.8-5.8-6.6-11.1-9.9-16.6q-6.1-10.2-19.1-8.1c0,8.2,0,16.6,0,25,0,3.2,0,5.9-4.5,5.9-4.4,0-4.8-2.3-4.8-5.7,0-21.3.1-42.6,0-64,0-4.1,1.3-5.9,5.5-5.9,6.9.1,13.8-.5,20.6,0,13.2.9,20.7,6.6,22.5,16.4,2.3,12.4-1.9,20-15.2,26.6ZM615.6,63.1c7.1-.6,14.2-.6,21-2,6.7-1.4,8.7-6.9,8.6-13.3,0-6-2.3-10.9-8.5-11.9-7-1.2-14.2-1.3-21.9-2,0,9.2,0,16.8,0,24.5,0,1.2.4,2.5.8,4.7Z" class="cls-1"/><path d="M887.4,69.4c6.3,10.6,12.5,20.9,18.9,31.6-6.4,1.8-10.8,1.5-13.8-4.8-2.8-5.8-7.3-10.8-9.7-16.7-3.7-9.2-10.3-10.3-19.2-8.6v30.5c-3.3.2-5.9.3-9.4.4,0-2.7,0-4.7,0-6.8,0-20.4.2-40.9-.1-61.3-.1-5.8,1.8-7.6,7.3-7.4,6.2.3,12.5-.4,18.7,0,13.9,1,20.8,6.5,22.8,17.6,2,11.3-2.5,19.1-15.4,25.4ZM863.7,63.1c7.4-.6,14.4-.6,21.3-1.9,6.1-1.1,9-6.2,8.9-13.2-.1-6.2-2.4-11.3-9-12.3-6.9-1.1-13.9-1.2-21.1-1.8v29.2Z" class="cls-1"/><path d="M961.2,77.4c-1.3-.1-2.2-.3-3-.2-7.3,0-16.4-2.5-21.4.9-4.7,3.2-5.5,12.7-7.4,19.5-1.9,6.6-6.2,4-10.8,3.7,5.1-18,10.1-35.5,15.1-53,1.5-5.2,2.9-10.3,4.5-15.5,1.5-4.8,5.4-7.4,9.8-6.5,3.5.7,8.7,3,9.6,5.7,7.2,22.7,13.5,45.6,20.1,68.5-8.1,2.7-9,2.3-11.1-4.7-1.8-6.1-3.6-12.3-5.3-18.4ZM937,68.7h22.2c-3.4-12-6.6-23.3-9.8-34.7-.9,0-1.7,0-2.6,0-3.2,11.4-6.4,22.7-9.8,34.7Z" class="cls-1"/><path d="M548.2,72.4v29h-8.6c-.1-1.7-.4-3.5-.4-5.4,0-20.9.1-41.8-.1-62.6,0-4.9,1.2-7.2,6.4-7,7.1.3,14.2-.4,21.2.3,12.5,1.1,19.7,8.6,20.3,20.2.7,13.5-5.1,21.6-18.1,24-6.5,1.2-13.2,1-20.7,1.5ZM548.7,63.8c9.7-.4,19.9,3.2,26.9-6.3,3.5-4.7,3.2-14.5-.5-18.3-7.6-7.9-17.2-4.9-26.4-5v29.6Z" class="cls-1"/><path d="M833.8,34.4c-7.6,0-14.9-.1-22.2,0-7.7.2-10,2.6-10.2,10.1,0,4.5,0,9,0,14.3,9.3,0,18.3,0,27.2,0,3,0,6.3-.5,6.1,4.2-.2,4.5-3.5,3.6-6.1,3.6-8.8,0-17.6,0-27,0,0,7.2-.3,14,.1,20.8.3,4.7,3.9,6.4,8.2,6.5,6.9.2,13.8,0,20.6.4,1.5,0,4.1,2.4,4,3.2-.3,1.8-2.1,4.6-3.4,4.6-8.4.2-16.8.5-25.1-.6-9.3-1.2-13.6-6.5-13.7-15.9-.2-14.4-.3-28.9,0-43.3.2-9.4,5.1-15,14.4-16,7.2-.7,14.6-.1,21.9-.4,5.7-.2,7.3,2.1,5.2,8.1Z" class="cls-1"/><path d="M684.8,101.2c-8.5,1.5-8.7,1.4-8.7-6.7,0-20.2.3-40.4-.2-60.6-.1-6.8,2.3-8.5,8.9-6.7v74Z" class="cls-1"/></g></svg>